<!-- assets/forgot_password_background.svg -->
<svg width="100%" height="100%" viewBox="0 0 400 800" xmlns="http://www.w3.org/2000/svg">
    <!-- Sky Gradient -->
    <defs>
        <linearGradient id="skyGrad" x1="0%" y1="0%" x2="100%" y2="100%">
            <stop offset="0%" style="stop-color:#BBDEFB;stop-opacity:1" />
            <stop offset="100%" style="stop-color:#E1BEE7;stop-opacity:1" />
        </linearGradient>
    </defs>
    <rect width="400" height="800" fill="url(#skyGrad)" />

    <!-- Ground -->
    <rect x="0" y="650" width="400" height="150" fill="#D7CCC8" />

    <!-- Treasure Chest -->
    <g transform="translate(100, 550)">
        <rect x="0" y="50" width="120" height="80" rx="10" fill="#8D5524" />
        <rect x="0" y="0" width="120" height="50" rx="10" fill="#A67B5B" />
        <path d="M60 50 L60 130" stroke="#6D4C41" stroke-width="4" />
        <!-- Lock -->
        <rect x="50" y="40" width="20" height="20" rx="3" fill="#FFD700" />
    </g>

    <!-- Curious Character (Simple Bear) -->
    <g transform="translate(250, 600)">
        <!-- Body -->
        <ellipse cx="50" cy="70" rx="40" ry="50" fill="#8D5524" />
        <!-- Ears -->
        <circle cx="30" cy="20" r="10" fill="#8D5524" />
        <circle cx="70" cy="20" r="10" fill="#8D5524" />
        <!-- Face -->
        <circle cx="50" cy="40" r="20" fill="#A67B5B" />
        <!-- Eyes -->
        <circle cx="45" cy="35" r="3" fill="black" />
        <circle cx="55" cy="35" r="3" fill="black" />
        <!-- Nose -->
        <ellipse cx="50" cy="45" rx="5" ry="3" fill="black" />
    </g>

    <!-- Question Mark -->
    <path d="M350 200 Q360 180 340 160 Q320 140 340 120 Q360 100 350 80 L340 70 Q330 80 320 100" stroke="white" stroke-width="6" fill="none" />
    <circle cx="320" cy="120" r="5" fill="white" />
</svg>