<!-- assets/login_background.svg -->
<svg width="100%" height="100%" viewBox="0 0 400 800" xmlns="http://www.w3.org/2000/svg">
    <!-- Sky Gradient -->
    <defs>
        <linearGradient id="skyGrad" x1="0%" y1="0%" x2="100%" y2="100%">
            <stop offset="0%" style="stop-color:#BBDEFB;stop-opacity:1" />
            <stop offset="100%" style="stop-color:#E1BEE7;stop-opacity:1" />
        </linearGradient>
    </defs>
    <rect width="400" height="800" fill="url(#skyGrad)" />

    <!-- Clouds -->
    <path d="M50 200 Q70 180 90 200 Q110 220 130 200 Q150 180 170 200 Q190 220 210 200 H250 Q270 180 290 200 L310 220 Q330 200 350 220 L370 200 Q390 180 410 200 H450 V350 H50 Z" fill="rgba(255, 255, 255, 0.7)" />
    <path d="M20 300 Q40 280 60 300 Q80 320 100 300 Q120 280 140 300 H180 Q200 280 220 300 L240 320 Q260 300 280 320 L300 300 Q320 280 340 300 H380 V450 H20 Z" fill="rgba(255, 255, 255, 0.6)" />

    <!-- Stars -->
    <circle cx="80" cy="50" r="5" fill="white" />
    <circle cx="150" cy="80" r="4" fill="white" />
    <circle cx="300" cy="60" r="6" fill="white" />

    <!-- Stack of Books -->
    <g transform="translate(150, 600)">
        <rect x="0" y="0" width="100" height="40" rx="5" fill="#FF7043" />
        <rect x="0" y="40" width="100" height="40" rx="5" fill="#4CAF50" />
        <rect x="0" y="80" width="100" height="40" rx="5" fill="#42A5F5" />
        <path d="M10 5 L10 115" stroke="white" stroke-width="2" />
        <path d="M90 5 L90 115" stroke="white" stroke-width="2" />
    </g>

    <!-- Floating Book -->
    <g transform="translate(300, 150) scale(0.6)">
        <rect x="0" y="0" width="80" height="50" rx="5" fill="#FFCA28" />
        <rect x="5" y="5" width="70" height="40" fill="white" />
        <path d="M40 10 L40 40" stroke="#FFCA28" stroke-width="2" />
    </g>
</svg>